<?xml version="1.0" encoding="UTF-8"?>
<svg width="14px" height="11px" viewBox="0 0 14 11" version="1.1" xmlns="http://www.w3.org/2000/svg" xmlns:xlink="http://www.w3.org/1999/xlink">
    <!-- Generator: Sketch 63 (92445) - https://sketch.com -->
    <title>icon/shujutu@2x</title>
    <desc>Created with Sketch.</desc>
    <g id="规范" stroke="none" stroke-width="1" fill="none" fill-rule="evenodd">
        <g id="图标" transform="translate(-189.000000, -187.000000)">
            <g id="icon/编辑/柱状图/press" transform="translate(184.000000, 180.000000)">
                <g id="icon-shujutu">
                    <g>
                        <polygon id="Clip-2" points="7.90332666e-17 0 24 0 24 24 7.90332666e-17 24"></polygon>
                        <path d="M5.5,7 C5.77614237,7 6,7.22385763 6,7.5 L6,17 L18.5,17 C18.7761424,17 19,17.2238576 19,17.5 C19,17.7761424 18.7761424,18 18.5,18 L5.5,18 C5.22385763,18 5,17.7761424 5,17.5 L5,7.5 C5,7.22385763 5.22385763,7 5.5,7 Z M8.5,13 C8.77614237,13 9,13.2238576 9,13.5 L9,14.5 C9,14.7761424 8.77614237,15 8.5,15 C8.22385763,15 8,14.7761424 8,14.5 L8,13.5 C8,13.2238576 8.22385763,13 8.5,13 Z M11.5,11 C11.7761424,11 12,11.2238576 12,11.5 L12,14.5 C12,14.7761424 11.7761424,15 11.5,15 C11.2238576,15 11,14.7761424 11,14.5 L11,11.5 C11,11.2238576 11.2238576,11 11.5,11 Z M14.5,9 C14.7761424,9 15,9.22385763 15,9.5 L15,14.5 C15,14.7761424 14.7761424,15 14.5,15 C14.2238576,15 14,14.7761424 14,14.5 L14,9.5 C14,9.22385763 14.2238576,9 14.5,9 Z M17.5,7 C17.7761424,7 18,7.22385763 18,7.5 L18,14.5 C18,14.7761424 17.7761424,15 17.5,15 C17.2238576,15 17,14.7761424 17,14.5 L17,7.5 C17,7.22385763 17.2238576,7 17.5,7 Z" id="形状结合" fill="#78A4FF"></path>
                    </g>
                </g>
            </g>
        </g>
    </g>
</svg>