<?xml version="1.0" encoding="UTF-8"?>
<svg width="13px" height="12px" viewBox="0 0 13 12" version="1.1" xmlns="http://www.w3.org/2000/svg" xmlns:xlink="http://www.w3.org/1999/xlink">
    <!-- Generator: Sketch 63 (92445) - https://sketch.com -->
    <title>icon/xiazai/press@2x</title>
    <desc>Created with Sketch.</desc>
    <g id="规范" stroke="none" stroke-width="1" fill="none" fill-rule="evenodd">
        <g id="图标" transform="translate(-238.000000, -186.000000)">
            <g id="icon/编辑/下载/press" transform="translate(232.000000, 180.000000)">
                <g id="xiazai">
                    <polygon id="Clip-2" points="7.63553993e-17 0 24 0 24 24 7.63553993e-17 24"></polygon>
                    <path d="M7.083,14 L7.08333333,16.6 C7.08333333,16.7932997 7.22044613,16.9545749 7.40271938,16.9918734 L7.48333333,17 L17.5166667,17 C17.7099663,17 17.8712416,16.8628872 17.9085401,16.680614 L17.9166667,16.6 L17.916,14 L19,14 L19,17 C19,17.5522847 18.5522847,18 18,18 L7,18 C6.44771525,18 6,17.5522847 6,17 L6,14 L7.083,14 Z M12.5,6 C12.7761424,6 13,6.22385763 13,6.5 L13,12.292 L15.6819805,9.6109127 C15.8772427,9.41565056 16.1938252,9.41565056 16.3890873,9.6109127 C16.5843494,9.80617485 16.5843494,10.1227573 16.3890873,10.3180195 L12.8535534,13.8535534 L12.8535534,13.8535534 L12.8412864,13.8654113 C12.8288187,13.8770608 12.8157542,13.8880797 12.8021439,13.8984173 L12.8535534,13.8535534 C12.8267191,13.8803877 12.7975936,13.9035342 12.7668065,13.922993 C12.7556825,13.9299807 12.7440467,13.9367067 12.7321272,13.9429657 L12.7317582,13.943195 L12.708068,13.9548004 C12.7016398,13.9577402 12.6951621,13.9605366 12.6886397,13.9631896 C12.6841797,13.9650145 12.6793409,13.9669035 12.6744662,13.9687187 L12.6560109,13.9751507 L12.6560109,13.9751507 L12.6268378,13.9837282 C12.6195865,13.9856222 12.6123009,13.987351 12.6049871,13.9889143 C12.5943062,13.9912471 12.5832525,13.9932298 12.5720792,13.994843 C12.5548708,13.9972949 12.5377348,13.998877 12.5205695,13.9995793 C12.5137573,13.9998604 12.5068949,14 12.5,14 L12.4804335,13.9996194 C12.4629328,13.9989382 12.445461,13.9973429 12.4280959,13.9948333 L12.5,14 C12.463903,14 12.4286993,13.9961748 12.3947723,13.9889078 C12.3876991,13.987351 12.3804135,13.9856222 12.3731622,13.9837282 L12.3439111,13.9751543 C12.3377313,13.9731254 12.3316047,13.9709794 12.3255338,13.9687187 L12.3113603,13.9631896 C12.3048379,13.9605366 12.2983602,13.9577402 12.291932,13.9548004 L12.2678728,13.9429657 C12.2559533,13.9367067 12.2443175,13.9299807 12.2329897,13.922812 C12.2211654,13.9153907 12.2093908,13.9072255 12.1979075,13.8984974 C12.1842458,13.8880797 12.1711813,13.8770608 12.1587136,13.8654113 C12.154675,13.861643 12.1505342,13.857641 12.1464466,13.8535534 L8.6109127,10.3180195 C8.41565056,10.1227573 8.41565056,9.80617485 8.6109127,9.6109127 C8.80617485,9.41565056 9.12275734,9.41565056 9.31801948,9.6109127 L12,12.293 L12,6.5 C12,6.22385763 12.2238576,6 12.5,6 Z" id="形状结合" fill="#78A4FF"></path>
                </g>
            </g>
        </g>
    </g>
</svg>