<?xml version="1.0" encoding="UTF-8"?>
<svg width="12px" height="13px" viewBox="0 0 12 13" version="1.1" xmlns="http://www.w3.org/2000/svg" xmlns:xlink="http://www.w3.org/1999/xlink">
    <!-- Generator: Sketch 63 (92445) - https://sketch.com -->
    <title>icon/bianji@2x</title>
    <desc>Created with Sketch.</desc>
    <defs>
        <polygon id="path-1" points="7.6210197e-17 0 24 0 24 24 7.6210197e-17 24"></polygon>
    </defs>
    <g id="规范" stroke="none" stroke-width="1" fill="none" fill-rule="evenodd">
        <g id="图标" transform="translate(-94.000000, -214.000000)">
            <g id="icon/编辑/编辑/nor" transform="translate(88.000000, 208.000000)">
                <g id="icon-bianji">
                    <g id="tianxie">
                        <mask id="mask-2" fill="white">
                            <use xlink:href="#path-1"></use>
                        </mask>
                        <g id="Clip-2"></g>
                        <path d="M17.5713957,10.2346983 C17.3347275,10.2346983 17.1428751,10.4265675 17.1428751,10.6632859 L17.1428751,16.9088185 C17.1428751,17.1455369 16.950939,17.3374061 16.7142708,17.3374061 L7.28572923,17.3374061 C7.04899407,17.3374061 6.85712492,17.1455369 6.85712492,16.9088185 L6.85712492,7.48026021 C6.85712492,7.24360876 7.04899407,7.0517396 7.28572923,7.0517396 L13.0392759,7.0517396 C13.2759441,7.0517396 13.4678132,6.85980349 13.4678132,6.62313529 C13.4678132,6.38641687 13.2759441,6.19454772 13.0392759,6.19454772 L7.28572923,6.19454772 C6.57560746,6.19454772 6,6.7702054 6,7.48026021 L6,16.9088185 C6,17.6189403 6.57560746,18.194531 7.28572923,18.194531 L16.7142708,18.194531 C17.4243256,18.194531 18,17.6189403 18,16.9088185 L18,10.6632859 C18,10.4265675 17.8081308,10.2346983 17.5713957,10.2346983 Z M8.2448741,14.6643964 C8.15822244,14.8448314 8.18412084,15.0591838 8.31130258,15.2137874 C8.43850106,15.3683742 8.64377979,15.4350705 8.83754068,15.3848474 L10.8197143,14.8709809 L17.8726676,7.81842938 L16.0542382,6 L9.03255715,13.0216811 L8.2448741,14.6643964 Z M9.74227715,13.5244482 L16.0542382,7.21240344 L16.6602474,7.81842938 L10.3791568,14.09952 L9.3368257,14.3695363 L9.74227715,13.5244482 Z" id="Fill-3" fill="#3C4E87" mask="url(#mask-2)"></path>
                    </g>
                </g>
            </g>
        </g>
    </g>
</svg>