<?xml version="1.0" encoding="UTF-8"?>
<svg width="14px" height="11px" viewBox="0 0 14 11" version="1.1" xmlns="http://www.w3.org/2000/svg" xmlns:xlink="http://www.w3.org/1999/xlink">
    <!-- Generator: Sketch 63 (92445) - https://sketch.com -->
    <title>icon/zhexiantu@2x</title>
    <desc>Created with Sketch.</desc>
    <g id="规范" stroke="none" stroke-width="1" fill="none" fill-rule="evenodd">
        <g id="图标" transform="translate(-141.000000, -215.000000)">
            <g id="icon/编辑/折线图/nor" transform="translate(136.000000, 208.000000)">
                <g id="icon-zhexiantu">
                    <g>
                        <polygon id="Clip-2" points="7.90332666e-17 0 24 0 24 24 7.90332666e-17 24"></polygon>
                        <path d="M5.5,7 C5.77614237,7 6,7.22385763 6,7.5 L6,17 L18.5,17 C18.7761424,17 19,17.2238576 19,17.5 C19,17.7761424 18.7761424,18 18.5,18 L5.5,18 C5.22385763,18 5,17.7761424 5,17.5 L5,7.5 C5,7.22385763 5.22385763,7 5.5,7 Z M18.8037129,8.89410067 C18.998975,9.08936281 18.998975,9.4059453 18.8037129,9.60120745 L14.5797403,13.8278109 C14.5741317,13.8340052 14.5683403,13.840093 14.5623661,13.8460672 C14.3671039,14.0413294 14.0505214,14.0413294 13.8552593,13.8460672 L11.3688127,11.3578947 L8.88133866,13.8460672 C8.68607652,14.0413294 8.36949403,14.0413294 8.17423188,13.8460672 C7.97896974,13.6508051 7.97896974,13.3342226 8.17423188,13.1389604 L11.002659,10.3105333 C11.0894422,10.2237501 11.2001899,10.1755373 11.3136003,10.1658947 L11.4229977,10.1658947 C11.5364081,10.1755373 11.6471558,10.2237501 11.7339389,10.3105333 L14.2067853,12.7836541 L18.0966061,8.89410067 C18.2918683,8.69883852 18.6084508,8.69883852 18.8037129,8.89410067 Z" id="形状结合" fill="#3F5290"></path>
                    </g>
                </g>
            </g>
        </g>
    </g>
</svg>