<?xml version="1.0" encoding="UTF-8"?>
<svg xmlns="http://www.w3.org/2000/svg" xmlns:xlink="http://www.w3.org/1999/xlink" class="icon" viewBox="0 0 1024 1024" id="icon-company"><path d="M454.751758 0s0.600156 100.626205-123.098723 244.063558S148.00521 465.121125 188.882521 534.939307s106.227663 75.686377 106.227664 75.686377-13.336806-62.616306 98.22558-167.84371C494.295389 347.490492 592.654337 299.277937 454.751758 0zM168.010419 580.151081s30.274551 176.77937 77.420162 216.856473c62.616306 53.347226 101.026309 63.216463 303.545715 81.754624 146.704871 13.336806 227.05913 71.485283 295.143527 145.237822 0 0-27.073717-172.111487-76.286533-220.724147-35.876009-35.409221-105.094035-83.154988-348.824173-98.492316C222.691326 692.513675 170.210992 586.819484 168.010419 580.151081z" fill="#FFFFFF" p-id="2839"></path><path d="M792.773118 304.212555s31.074759 81.087783-93.757749 192.783538c-40.010419 35.809325-127.433186 95.09143-188.715812 155.973951 99.492576 12.40323 149.5056 27.140401 187.448815 46.678823 105.694191-93.357645 150.439177-167.777025 157.707736-247.131024 7.201875-81.221151-62.68299-148.305288-62.68299-148.305288z" fill="#28BCEB" p-id="2840"></path><path d="M533.905705 385.033603a405.772337 405.772337 0 0 1-28.207346 29.474342L641.467049 455.185204a166.710081 166.710081 0 0 0 25.940088-24.939828z" fill="#FFFFFF" p-id="2841"></path><path d="M426.411045 455.185204c-17.471216 9.802553-35.742641 33.342016-36.142746 33.342017l200.052097 53.347225c10.069289-7.802032 24.606408-20.00521 33.342016-27.207085z" fill="#28BCEB" p-id="2842"></path><path d="M365.261787 582.018234l122.165147 28.60745c9.335765-7.868716 18.871581-17.404532 28.340714-25.006512l-135.568638-35.209169a82.221412 82.221412 0 0 0-14.937223 31.608231z" fill="#FFFFFF" p-id="2843"></path></svg>